<?xml version="1.0" standalone="no"?>
<!DOCTYPE svg PUBLIC "-//W3C//DTD SVG 20010904//EN"
 "http://www.w3.org/TR/2001/REC-SVG-20010904/DTD/svg10.dtd">
<svg version="1.0" xmlns="http://www.w3.org/2000/svg"
 width="600.000000pt" height="600.000000pt" viewBox="0 0 600.000000 600.000000"
 preserveAspectRatio="xMidYMid meet">
<metadata>
Created by potrace 1.15, written by Peter Selinger 2001-2017
</metadata>
<g transform="translate(0.000000,600.000000) scale(0.100000,-0.100000)"
fill="#000000" stroke="none">
<path d="M1829 4435 c-145 -53 -233 -136 -347 -327 -29 -47 -83 -120 -121
-162 -80 -87 -101 -127 -101 -188 0 -83 73 -165 236 -266 95 -59 263 -144 319
-162 22 -7 51 -23 65 -36 27 -24 89 -54 115 -54 26 0 54 37 69 92 8 29 24 143
35 253 22 211 36 304 49 317 5 5 37 -5 73 -21 84 -40 175 -63 216 -55 42 8 89
61 97 111 15 90 -68 259 -161 328 -71 52 -245 142 -317 164 -77 24 -173 26
-227 6z"/>
<path d="M3881 3871 c-75 -28 -137 -70 -209 -143 -81 -82 -118 -138 -142 -217
-30 -95 -29 -172 4 -221 34 -52 74 -79 87 -59 5 8 9 20 9 27 0 35 82 152 121
173 28 15 44 -1 78 -76 39 -86 62 -105 126 -105 44 0 56 -5 86 -33 18 -18 48
-50 65 -72 27 -35 33 -38 48 -26 20 17 21 53 0 92 -21 42 -29 120 -15 161 24
73 102 75 178 5 42 -39 49 -42 114 -45 57 -4 74 -1 89 13 11 10 20 23 20 29 0
6 9 22 20 36 l19 25 53 -17 c90 -29 123 -35 145 -27 29 11 56 65 49 95 -10 40
-73 100 -128 124 -47 20 -63 22 -144 16 l-92 -6 -55 69 c-84 103 -134 140
-230 169 -113 34 -226 39 -296 13z"/>
<path d="M2400 3758 c-30 -41 -31 -46 -25 -103 3 -33 7 -80 8 -105 l2 -45 -39
-5 c-35 -4 -41 -9 -48 -37 -5 -18 -13 -35 -18 -38 -6 -3 -10 -15 -10 -26 0
-12 -10 -23 -25 -29 -14 -5 -25 -16 -25 -25 0 -28 -53 -76 -87 -78 -38 -2 -38
-13 0 -41 19 -14 48 -21 90 -24 84 -5 115 18 125 96 4 29 9 54 12 55 3 1 31
-11 62 -28 66 -34 81 -31 111 26 31 59 6 146 -83 285 -31 50 -38 99 -19 136
20 37 2 29 -31 -14z"/>
<path d="M4696 3362 c-2 -4 -1 -271 4 -592 10 -610 33 -1190 50 -1234 l10 -26
394 0 394 0 27 31 c14 18 37 54 51 81 14 28 35 53 48 58 13 5 33 20 44 35 36
46 45 122 39 355 -6 275 -22 367 -124 710 -87 295 -124 362 -236 424 -90 50
-169 73 -307 91 -82 11 -148 26 -197 46 -72 28 -185 41 -197 21z m220 -1277
c12 -30 54 -277 54 -322 0 -13 -8 -14 -52 -9 -29 4 -73 12 -98 17 l-45 10 0
142 c0 78 -4 154 -8 170 l-7 27 70 0 71 0 15 -35z"/>
<path d="M4310 2810 c-47 -60 -105 -101 -150 -107 -32 -5 -47 0 -86 26 -26 17
-59 31 -73 31 -25 0 -58 25 -84 63 -11 16 -14 16 -35 2 -25 -18 -28 -55 -11
-132 9 -42 7 -68 -20 -198 -34 -166 -55 -242 -74 -265 -6 -9 -29 -26 -50 -39
-21 -13 -50 -42 -64 -65 -14 -22 -37 -54 -52 -69 -25 -27 -26 -33 -25 -135 1
-118 15 -175 65 -252 63 -100 127 -117 236 -62 34 18 65 32 69 32 6 0 -2 -78
-12 -112 -5 -17 8 -18 179 -18 l184 0 33 110 c64 219 72 336 45 645 -9 94 -18
263 -22 378 -3 114 -10 207 -14 207 -4 0 -21 -18 -39 -40z m-518 -697 c-24
-51 -27 -70 -27 -159 0 -117 13 -144 70 -144 35 0 49 12 88 80 14 25 33 54 41
65 16 19 16 19 10 -10 -17 -82 -83 -184 -138 -212 -26 -13 -30 -13 -51 7 -32
30 -46 88 -46 199 -1 102 10 143 51 202 32 43 32 36 2 -28z"/>
</g>
</svg>
